# xmcd
#
# Track frame offsets:
#	150
#	17475
#	42727
#	53833
#	70878
#	84888
#	99791
#	118863
#	142873
#	156968
#	177665
#	195251
#
# Disc length: 2836
#
# Revision: 3
# Processed by: cddbd v1.5.1PL0 Copyright (c) Steve Scherf et al.
# Submitted via: CDex 1.51
# Normalized: r2:DSETVAR1
#
DISCID=970b120c
DTITLE=Various Artist - Cantigas de embarcar
DYEAR=1997
DGENRE=Pop
TTITLE0=Maria Bethania - Canções e momentos
TTITLE1=Virginia Rodrigues - Noite de temporal
TTITLE2=Chico Buarque - Eu te amo
TTITLE3=Eugénia Melo e Castro - Cantar
TTITLE4=Arto Lindsay - Mulata fuzarqueira
TTITLE5=Banda do Casaco - Véaveza
TTITLE6=Gil do Carmo - Tu morres todos os dias
TTITLE7=Fernando Girão - Nas flores pintei o teu nome
TTITLE8=Gal Costa - Chuva de prata
TTITLE9=Luis Represas - Agora
TTITLE10=Maria Bethania - Doce espera
TTITLE11=Gilberto Gil - Aquele abraço
EXTD=YEAR: 1997
EXTT0=
EXTT1=
EXTT2=
EXTT3=
EXTT4=
EXTT5=
EXTT6=
EXTT7=
EXTT8=
EXTT9=
EXTT10=
EXTT11=
PLAYORDER=
